{
    "asset": {
        "generator": "COLLADA2GLTF",
        "version": "2.0"
    },
    "scenes": [
        {
            "nodes": [
                0
            ]
        }
    ],
    "scene": 0,
    "nodes": [
        {
            "children": [
                1
            ],
            "matrix": [
                1.0,
                0.0,
                0.0,
                0.0,
                0.0,
                0.0,
                -1.0,
                0.0,
                0.0,
                1.0,
                0.0,
                0.0,
                0.0,
                0.0,
                0.0,
                1.0
            ],
            "name": "Z_UP"
        },
        {
            "mesh": 0,
            "matrix": [
                1.0,
                0.0,
                0.0,
                0.0,
                0.0,
                -6.397580136763281e-7,
                1.0,
                0.0,
                0.0,
                -1.0,
                -6.397580136763281e-7,
                0.0,
                0.0,
                0.0,
                1.5965500210768369e-7,
                1.0
            ],
            "name": "Cylinder_002"
        }
    ],
    "meshes": [
        {
            "primitives": [
                {
                    "attributes": {
                        "NORMAL": 1,
                        "POSITION": 2,
                        "TEXCOORD_0": 3
                    },
                    "indices": 0,
                    "mode": 4,
                    "material": 0
                }
            ],
            "name": "Cylinder.002"
        }
    ],
    "accessors": [
        {
            "bufferView": 0,
            "byteOffset": 0,
            "componentType": 5123,
            "count": 414,
            "max": [
                318
            ],
            "min": [
                0
            ],
            "type": "SCALAR"
        },
        {
            "bufferView": 1,
            "byteOffset": 0,
            "componentType": 5126,
            "count": 319,
            "max": [
                0.9659276008605956,
                0.7043101787567139,
                0.9659268260002136
            ],
            "min": [
                -0.9659276008605956,
                -1.0,
                -0.9659268260002136
            ],
            "type": "VEC3"
        },
        {
            "bufferView": 1,
            "byteOffset": 3828,
            "componentType": 5126,
            "count": 319,
            "max": [
                0.9409213066101074,
                2.860792875289917,
                0.9369025826454164
            ],
            "min": [
                -0.9328845143318176,
                0.0,
                -0.9369038343429564
            ],
            "type": "VEC3"
        },
        {
            "bufferView": 2,
            "byteOffset": 0,
            "componentType": 5126,
            "count": 319,
            "max": [
                0.9997847080230712,
                0.9997847080230712
            ],
            "min": [
                0.00021528599609155208,
                0.013277888298034668
            ],
            "type": "VEC2"
        }
    ],
    "materials": [
        {
            "pbrMetallicRoughness": {
                "baseColorTexture": {
                    "index": 0
                },
                "metallicFactor": 0.0
            },
            "emissiveFactor": [
                0.0,
                0.0,
                0.0
            ],
            "doubleSided": true,
            "name": "treeMaterial-effect"
        }
    ],
    "textures": [
        {
            "sampler": 0,
            "source": 0
        }
    ],
    "images": [
        {
            "uri": "Tree.png"
        }
    ],
    "samplers": [
        {
            "magFilter": 9729,
            "minFilter": 9986,
            "wrapS": 10497,
            "wrapT": 10497
        }
    ],
    "bufferViews": [
        {
            "buffer": 0,
            "byteOffset": 10208,
            "byteLength": 828,
            "target": 34963
        },
        {
            "buffer": 0,
            "byteOffset": 0,
            "byteLength": 7656,
            "byteStride": 12,
            "target": 34962
        },
        {
            "buffer": 0,
            "byteOffset": 7656,
            "byteLength": 2552,
            "byteStride": 8,
            "target": 34962
        }
    ],
    "buffers": [
        {
            "byteLength": 11036,
            "uri": "tree0.bin"
        }
    ]
}
