# Blender v2.78 (sub 0) OBJ File: 'bitballoon.blend'
# www.blender.org
mtllib arrow.mtl
o Cylinder_Cylinder.003
v 0.045000 -0.319735 -0.000000
v 0.053640 -0.111620 -0.011892
v 0.045000 -0.261046 -0.014700
v 0.045000 -0.030554 -0.014700
v 0.053640 -0.261046 -0.011892
v 0.053640 -0.030554 -0.011892
v 0.058981 -0.261046 -0.004543
v 0.058981 -0.030554 -0.004543
v 0.058981 -0.261046 0.004543
v 0.058981 -0.030554 0.004543
v 0.053640 -0.261046 0.011892
v 0.053640 -0.030554 0.011892
v 0.045000 -0.261046 0.014700
v 0.045000 -0.030554 0.014700
v 0.036360 -0.261046 0.011892
v 0.036360 -0.030554 0.011892
v 0.031019 -0.261046 0.004543
v 0.031019 -0.030554 0.004543
v 0.031019 -0.261046 -0.004543
v 0.031019 -0.030554 -0.004543
v 0.036360 -0.261046 -0.011892
v 0.036360 -0.030554 -0.011892
v 0.045000 -0.000226 0.000000
v 0.045000 -0.000226 -0.014700
v 0.053640 -0.000226 -0.011892
v 0.058981 -0.000226 -0.004543
v 0.058981 -0.000226 0.004543
v 0.053640 -0.000226 0.011892
v 0.045000 -0.000226 0.014700
v 0.036360 -0.000226 0.011892
v 0.031019 -0.000226 0.004543
v 0.031019 -0.000226 -0.004543
v 0.036360 -0.000226 -0.011892
v 0.045000 -0.261046 -0.027500
v 0.061164 -0.261046 -0.022248
v 0.071154 -0.261046 -0.008498
v 0.071154 -0.261046 0.008498
v 0.061164 -0.261046 0.022248
v 0.045000 -0.261046 0.027500
v 0.028836 -0.261046 0.022248
v 0.018846 -0.261046 0.008498
v 0.018846 -0.261046 -0.008498
v 0.028836 -0.261046 -0.022248
v 0.036360 -0.044232 -0.011892
v 0.031019 -0.044232 -0.004543
v 0.031019 -0.044232 0.004543
v 0.036360 -0.044232 0.011892
v 0.045000 -0.044232 0.014700
v 0.053640 -0.044232 0.011892
v 0.058981 -0.044232 0.004543
v 0.058981 -0.044232 -0.004543
v 0.053640 -0.044232 -0.011892
v 0.045000 -0.044232 -0.014700
v 0.058981 -0.111620 -0.004543
v 0.058981 -0.111620 0.004543
v 0.053640 -0.111620 0.011892
v 0.045000 -0.111620 0.014700
v 0.036360 -0.111620 0.011892
v 0.031019 -0.111620 0.004543
v 0.031019 -0.111620 -0.004543
v 0.036360 -0.111620 -0.011892
v 0.045000 -0.111620 -0.014700
v -0.000607 -0.017524 -0.004543
v -0.000607 -0.084912 -0.004543
v -0.000607 -0.017524 0.004543
v -0.000607 -0.084912 0.004543
v 0.090607 -0.017524 0.004543
v 0.090607 -0.084912 0.004543
v 0.090607 -0.017524 -0.004543
v 0.090607 -0.084912 -0.004543
vn 0.6452 0.7640 0.0000
vn -0.6452 0.7640 0.0000
vn 1.0000 0.0000 0.0000
vn -1.0000 0.0000 0.0000
vn 0.0000 0.0000 1.0000
vn 0.0000 0.0000 -1.0000
vn -0.6452 -0.7640 0.0000
vn 0.6452 -0.7640 0.0000
vn 0.3090 0.0000 0.9511
vn -0.8090 0.0000 0.5878
vn -0.8090 0.0000 -0.5878
vn 0.3090 0.0000 -0.9511
vn -0.3090 0.0000 -0.9511
vn 0.8090 0.0000 -0.5878
vn 0.8090 0.0000 0.5878
vn -0.3090 0.0000 0.9511
vn 0.0000 1.0000 0.0000
vn -0.7390 -0.4070 -0.5369
vn 0.7390 -0.4070 -0.5369
vn -0.7390 -0.4070 0.5369
vn 0.2823 -0.4070 0.8687
vn 0.9134 -0.4071 0.0000
vn -0.9134 -0.4071 0.0000
vn 0.2823 -0.4070 -0.8687
vn -0.2823 -0.4070 -0.8687
vn -0.2823 -0.4070 0.8687
vn 0.7390 -0.4070 0.5369
usemtl WingsMaterial
s off
f 46//1 45//1 63//1 65//1
f 51//2 50//2 67//2 69//2
f 70//3 69//3 67//3 68//3
f 66//4 65//4 63//4 64//4
f 59//5 46//5 65//5 66//5
f 45//6 60//6 64//6 63//6
f 60//7 59//7 66//7 64//7
f 54//6 51//6 69//6 70//6
f 55//8 54//8 70//8 68//8
f 50//5 55//5 68//5 67//5
usemtl TailMaterial
f 10//3 8//3 26//3 27//3
f 14//9 12//9 28//9 29//9
f 18//10 16//10 30//10 31//10
f 22//11 20//11 32//11 33//11
f 6//12 4//12 24//12 25//12
f 4//13 22//13 33//13 24//13
f 8//14 6//14 25//14 26//14
f 12//15 10//15 27//15 28//15
f 16//16 14//16 29//16 30//16
f 20//4 18//4 31//4 32//4
f 23//17 25//17 24//17
f 23//17 26//17 25//17
f 23//17 27//17 26//17
f 23//17 28//17 27//17
f 23//17 29//17 28//17
f 23//17 30//17 29//17
f 23//17 31//17 30//17
f 23//17 32//17 31//17
f 23//17 33//17 32//17
f 23//17 24//17 33//17
usemtl BodyMaterial
f 53//12 4//12 6//12 52//12
f 52//14 6//14 8//14 51//14
f 51//3 8//3 10//3 50//3
f 50//15 10//15 12//15 49//15
f 49//9 12//9 14//9 48//9
f 48//16 14//16 16//16 47//16
f 47//10 16//10 18//10 46//10
f 46//4 18//4 20//4 45//4
f 45//11 20//11 22//11 44//11
f 44//13 22//13 4//13 53//13
f 62//12 53//12 52//12 2//12
f 2//14 52//14 51//14 54//14
f 55//15 50//15 49//15 56//15
f 56//9 49//9 48//9 57//9
f 57//16 48//16 47//16 58//16
f 58//10 47//10 46//10 59//10
f 60//11 45//11 44//11 61//11
f 61//13 44//13 53//13 62//13
f 21//13 61//13 62//13 3//13
f 19//11 60//11 61//11 21//11
f 17//4 59//4 60//4 19//4
f 15//10 58//10 59//10 17//10
f 13//16 57//16 58//16 15//16
f 11//9 56//9 57//9 13//9
f 9//15 55//15 56//15 11//15
f 7//3 54//3 55//3 9//3
f 5//14 2//14 54//14 7//14
f 3//12 62//12 2//12 5//12
usemtl HeadMaterial
f 5//17 7//17 36//17 35//17
f 3//17 5//17 35//17 34//17
f 9//17 11//17 38//17 37//17
f 13//17 15//17 40//17 39//17
f 17//17 19//17 42//17 41//17
f 7//17 9//17 37//17 36//17
f 21//17 3//17 34//17 43//17
f 11//17 13//17 39//17 38//17
f 15//17 17//17 41//17 40//17
f 19//17 21//17 43//17 42//17
f 42//18 43//18 1//18
f 35//19 36//19 1//19
f 40//20 41//20 1//20
f 38//21 39//21 1//21
f 36//22 37//22 1//22
f 41//23 42//23 1//23
f 34//24 35//24 1//24
f 43//25 34//25 1//25
f 39//26 40//26 1//26
f 37//27 38//27 1//27
