# Blender v2.78 (sub 0) OBJ File: 'bitballoon.blend'
# www.blender.org
mtllib platform.mtl
o platform_Cube.004
v 0.238725 -0.269268 2.006668
v 0.238742 -0.269255 -0.993333
v 0.000008 -0.479197 -0.993333
v 0.000008 -0.479197 2.006667
v 0.479992 -0.479197 -0.993333
v 0.479992 -0.479197 2.006668
v 0.000009 -0.076877 2.006667
v 0.000009 -0.000413 2.006667
v 0.000008 -0.000413 -0.993334
v 0.479992 -0.076877 -0.993333
v 0.479992 -0.000412 2.006666
v 0.479992 -0.000412 -0.993333
v 0.238867 -0.207487 2.006667
v 0.238109 -0.206881 -0.993333
v 0.276939 -0.238795 2.006668
v 0.479992 -0.076877 2.006668
v 0.071421 -0.479197 -0.993333
v 0.071421 -0.479197 2.006668
v 0.405127 -0.479197 -0.993333
v 0.405127 -0.479197 2.006668
v 0.405127 -0.402733 -0.993334
v 0.479991 -0.402733 -0.993333
v 0.479991 -0.402733 2.006667
v 0.405127 -0.402733 2.006667
v 0.071251 -0.402815 -0.993333
v 0.071251 -0.402815 2.006667
v 0.000008 -0.402733 2.006667
v -0.001519 -0.400928 -0.993334
v 0.077401 -0.077237 2.006668
v 0.077401 -0.000412 2.006667
v 0.077401 -0.000412 -0.993334
v 0.077401 -0.076877 -0.993332
v 0.000008 -0.076877 -0.993333
v 0.398764 -0.076785 2.006667
v 0.398682 -0.076877 -0.993333
v 0.398682 -0.076877 2.006668
v 0.398682 -0.000412 2.006667
v 0.398682 -0.000412 -0.993334
v 0.200716 -0.238671 2.006667
v 0.199826 -0.237881 -0.993333
v 0.277381 -0.238443 -0.993332
vn -0.6275 -0.7786 -0.0000
vn -1.0000 -0.0099 0.0003
vn 1.0000 0.0000 -0.0000
vn -0.0000 -1.0000 0.0000
vn -0.0000 0.0000 1.0000
vn 0.0000 -0.0000 -1.0000
vn -0.0000 1.0000 -0.0000
vn -0.6311 0.7757 0.0002
vn -1.0000 -0.0000 0.0000
vn 0.6235 -0.7819 0.0000
vn -0.6311 0.7757 0.0006
vn 0.0006 -1.0000 -0.0001
vn 0.6290 0.7774 0.0001
vn -0.0002 1.0000 -0.0000
vn -0.6257 -0.7801 -0.0000
vn 0.6284 0.7779 0.0000
usemtl PlatformMaterial
s off
f 7//1 33//1 40//1 39//1
f 3//2 4//2 27//2 28//2
f 5//3 22//3 23//3 6//3
f 19//4 5//4 6//4 20//4
f 20//5 6//5 23//5 24//5
f 17//6 3//6 28//6 25//6
f 40//6 2//6 25//6 28//6
f 10//3 12//3 11//3 16//3
f 36//5 16//5 11//5 37//5
f 37//7 11//7 12//7 38//7
f 32//6 33//6 9//6 31//6
f 14//8 13//8 34//8 35//8
f 19//6 17//6 25//6 21//6
f 4//5 18//5 26//5 27//5
f 3//4 17//4 18//4 4//4
f 5//6 19//6 21//6 22//6
f 8//9 9//9 33//9 7//9
f 18//5 20//5 24//5 26//5
f 17//4 19//4 20//4 18//4
f 15//10 41//10 10//10 16//10
f 35//6 32//6 31//6 38//6
f 8//7 30//7 31//7 9//7
f 30//5 8//5 7//5 29//5
f 27//11 39//11 40//11 28//11
f 25//10 2//10 1//10 26//10
f 10//6 35//6 38//6 12//6
f 30//7 37//7 38//7 31//7
f 29//5 36//5 37//5 30//5
f 32//12 35//12 36//12 29//12
f 1//5 15//5 13//5 39//5
f 23//13 22//13 41//13 15//13
f 14//6 41//6 2//6 40//6
f 7//5 39//5 13//5 29//5
f 34//5 13//5 15//5 16//5
f 1//5 24//5 23//5 15//5
f 39//5 27//5 26//5 1//5
f 26//14 24//14 21//14 25//14
f 21//6 2//6 41//6 22//6
f 1//15 2//15 21//15 24//15
f 13//16 14//16 32//16 29//16
f 33//6 32//6 14//6 40//6
f 10//6 41//6 14//6 35//6
