# Blender v2.78 (sub 0) OBJ File: 'player.blend'
# www.blender.org
mtllib player.mtl
o Cube
v 0.640000 -0.640000 0.287622
v 0.640000 0.000000 0.287622
v 0.526977 -0.269469 0.287622
v 0.000000 -0.640000 -0.287622
v 0.362580 -0.082914 0.287622
v 0.526977 -0.082914 0.287622
v 0.000000 0.000000 -0.287622
v 0.277575 -0.112921 0.287622
v 0.640000 -0.640000 -0.287622
v 0.362581 -0.269469 0.287622
v 0.000000 0.000000 0.287622
v 0.123018 -0.269469 0.287622
v 0.169385 -0.229941 0.352378
v 0.169385 -0.169330 0.352378
v 0.640000 0.000000 -0.287622
v 0.231208 -0.229941 0.352378
v 0.231208 -0.169330 0.352378
v 0.399461 -0.137708 0.352378
v 0.277575 -0.269469 0.287622
v 0.399461 -0.240482 0.352378
v 0.000000 -0.640000 0.287622
v 0.123018 -0.112921 0.287622
v 0.492300 -0.137708 0.352378
v 0.492300 -0.240482 0.352378
v 0.362581 -0.269469 0.332008
v 0.526977 -0.269469 0.332009
v 0.123018 -0.269469 0.332008
v 0.277575 -0.269469 0.332008
v 0.362580 -0.082914 0.332008
v 0.123018 -0.112921 0.332008
v 0.277575 -0.112921 0.332008
v 0.399461 -0.137708 0.332009
v 0.526977 -0.082914 0.332009
v 0.492300 -0.137708 0.332009
v 0.169385 -0.229941 0.332008
v 0.399461 -0.240482 0.332008
v 0.231208 -0.229941 0.332008
v 0.492300 -0.240482 0.332009
v 0.231208 -0.169330 0.332008
v 0.169385 -0.169330 0.332008
vn 0.0000 -0.0000 1.0000
vn -1.0000 0.0000 0.0000
vn 1.0000 -0.0000 0.0000
vn 0.0000 -1.0000 0.0000
vn 0.0000 1.0000 0.0000
vn 0.0000 0.0000 -1.0000
usemtl PlayerMaterial
s off
f 6//1 2//1 5//1
f 1//1 2//1 3//1
f 1//1 3//1 10//1
f 21//2 7//2 4//2
f 21//1 12//1 11//1
f 15//3 1//3 9//3
f 1//4 4//4 9//4
f 7//5 2//5 15//5
f 5//1 2//1 11//1
f 9//6 7//6 15//6
f 1//1 19//1 21//1
f 5//1 11//1 8//1
f 10//1 5//1 8//1
f 2//1 6//1 3//1
f 21//1 19//1 12//1
f 12//1 22//1 11//1
f 10//1 8//1 19//1
f 1//1 10//1 19//1
f 9//6 4//6 7//6
f 8//1 11//1 22//1
f 7//5 11//5 2//5
f 1//4 21//4 4//4
f 15//3 2//3 1//3
f 21//2 11//2 7//2
usemtl AppleMaterial
f 12//2 27//2 30//2
f 3//4 25//4 10//4
f 12//4 28//4 27//4
f 8//3 31//3 28//3
f 22//5 30//5 31//5
f 6//5 29//5 33//5
f 6//3 26//3 3//3
f 22//5 31//5 8//5
f 31//1 30//1 40//1
f 6//3 33//3 26//3
f 6//5 5//5 29//5
f 8//3 28//3 19//3
f 12//4 19//4 28//4
f 3//4 26//4 25//4
f 12//2 30//2 22//2
f 10//2 29//2 5//2
f 40//1 30//1 27//1
f 32//1 29//1 25//1
f 28//1 31//1 39//1
f 32//1 33//1 29//1
f 33//1 34//1 38//1
f 26//1 33//1 38//1
f 26//1 36//1 25//1
f 26//1 38//1 36//1
f 34//1 33//1 32//1
f 28//1 37//1 27//1
f 28//1 39//1 37//1
f 32//1 25//1 36//1
f 40//1 27//1 35//1
f 10//2 25//2 29//2
f 27//1 37//1 35//1
f 31//1 40//1 39//1
usemtl PupilMaterial
f 37//4 16//4 13//4
f 38//4 24//4 20//4
f 39//3 17//3 16//3
f 40//5 14//5 17//5
f 34//5 32//5 18//5
f 17//1 14//1 13//1
f 23//1 18//1 20//1
f 32//2 36//2 20//2
f 35//2 13//2 14//2
f 35//2 14//2 40//2
f 32//2 20//2 18//2
f 38//3 23//3 24//3
f 23//1 20//1 24//1
f 17//1 13//1 16//1
f 38//3 34//3 23//3
f 34//5 18//5 23//5
f 40//5 17//5 39//5
f 39//3 16//3 37//3
f 38//4 20//4 36//4
f 37//4 13//4 35//4
