# Blender v2.78 (sub 0) OBJ File: 'bitballoon.blend'
# www.blender.org
mtllib support.mtl
o support_Cube.001
v 0.000000 -0.480000 0.125000
v 0.000000 0.000000 0.125000
v 0.000000 -0.480000 -0.125000
v 0.000000 0.000000 -0.125000
v 0.240000 -0.480000 0.125000
v 0.240000 0.000000 0.125000
v 0.240000 -0.480000 -0.125000
v 0.240000 0.000000 -0.125000
v 0.171344 -0.480000 -0.125000
v 0.068656 -0.480000 -0.125000
v 0.068656 -0.000000 -0.125000
v 0.171344 -0.000000 -0.125000
v 0.068656 -0.480000 0.125000
v 0.171344 -0.480000 0.125000
v 0.171344 -0.000000 0.125000
v 0.068656 -0.000000 0.125000
v 0.000000 -0.289844 0.125000
v 0.000000 -0.190156 0.125000
v 0.000000 -0.190156 -0.125000
v 0.000000 -0.289844 -0.125000
v 0.240000 -0.190156 -0.125000
v 0.240000 -0.289844 -0.125000
v 0.240000 -0.190156 0.125000
v 0.240000 -0.289844 0.125000
v 0.171344 -0.190156 0.125000
v 0.171344 -0.289844 0.125000
v 0.068656 -0.190156 0.125000
v 0.068656 -0.289844 0.125000
v 0.068656 -0.190156 -0.125000
v 0.068656 -0.289844 -0.125000
v 0.171344 -0.190156 -0.125000
v 0.171344 -0.289844 -0.125000
vn -1.0000 -0.0000 0.0000
vn -0.0000 -0.0000 -1.0000
vn 1.0000 -0.0000 0.0000
vn 0.0000 -0.0000 1.0000
vn -0.0000 -1.0000 0.0000
vn 0.0000 1.0000 0.0000
usemtl SupportMaterial
s off
f 18//1 2//1 4//1 19//1
f 31//2 12//2 8//2 21//2
f 21//3 8//3 6//3 23//3
f 27//4 16//4 2//4 18//4
f 9//5 7//5 5//5 14//5
f 11//6 4//6 2//6 16//6
f 8//6 12//6 15//6 6//6
f 28//3 13//3 10//3 30//3
f 3//5 10//5 13//5 1//5
f 30//5 32//5 26//5 28//5
f 23//4 6//4 15//4 25//4
f 26//1 32//1 9//1 14//1
f 19//2 4//2 11//2 29//2
f 25//1 15//1 12//1 31//1
f 31//6 29//6 27//6 25//6
f 30//2 29//2 31//2 32//2
f 3//2 20//2 30//2 10//2
f 20//2 19//2 29//2 30//2
f 27//3 29//3 11//3 16//3
f 26//4 25//4 27//4 28//4
f 5//4 24//4 26//4 14//4
f 24//4 23//4 25//4 26//4
f 13//4 28//4 17//4 1//4
f 28//4 27//4 18//4 17//4
f 7//3 22//3 24//3 5//3
f 22//3 21//3 23//3 24//3
f 9//2 32//2 22//2 7//2
f 32//2 31//2 21//2 22//2
f 1//1 17//1 20//1 3//1
f 17//1 18//1 19//1 20//1
