# Blender v2.78 (sub 0) OBJ File: 'bitballoon.blend'
# www.blender.org
mtllib tree2.mtl
o tree2_Cylinder.001
v 0.664837 -1.274789 -0.186775
v 0.664837 -0.963896 -0.101636
v 0.713178 -1.274789 -0.180411
v 0.691143 -0.963896 -0.098173
v 0.758225 -1.274789 -0.161752
v 0.715655 -0.963896 -0.088019
v 0.796908 -1.274789 -0.132070
v 0.736705 -0.963896 -0.071867
v 0.826590 -1.274789 -0.093388
v 0.752857 -0.963896 -0.050818
v 0.845249 -1.274789 -0.048341
v 0.763010 -0.963896 -0.026305
v 0.851613 -1.274789 -0.000000
v 0.766473 -0.963896 0.000000
v 0.845249 -1.274789 0.048341
v 0.763010 -0.963896 0.026305
v 0.826590 -1.274789 0.093388
v 0.752857 -0.963896 0.050818
v 0.796908 -1.274789 0.132070
v 0.736705 -0.963896 0.071867
v 0.758225 -1.274789 0.161752
v 0.715655 -0.963896 0.088019
v 0.713179 -1.274789 0.180411
v 0.691143 -0.963896 0.098173
v 0.664837 -1.274789 0.186775
v 0.664837 -0.963896 0.101636
v 0.616497 -1.274789 0.180411
v 0.638532 -0.963896 0.098173
v 0.571450 -1.274789 0.161752
v 0.614020 -0.963896 0.088019
v 0.532767 -1.274789 0.132070
v 0.592970 -0.963896 0.071867
v 0.503085 -1.274789 0.093388
v 0.576818 -0.963896 0.050818
v 0.484426 -1.274789 0.048341
v 0.566665 -0.963896 0.026305
v 0.478062 -1.274789 0.000000
v 0.563202 -0.963896 0.000000
v 0.484426 -1.274789 -0.048341
v 0.566665 -0.963896 -0.026305
v 0.503085 -1.274789 -0.093388
v 0.576818 -0.963896 -0.050818
v 0.532767 -1.274789 -0.132070
v 0.592970 -0.963896 -0.071867
v 0.571450 -1.274789 -0.161752
v 0.614019 -0.963896 -0.088019
v 0.616496 -1.274789 -0.180411
v 0.638532 -0.963896 -0.098173
v 0.630326 -0.963896 -0.533525
v 0.768412 -0.963896 -0.515346
v 0.897088 -0.963896 -0.462046
v 1.007585 -0.963896 -0.377259
v 1.092372 -0.963896 -0.266763
v 1.145671 -0.963896 -0.138087
v 1.163851 -0.963896 -0.000000
v 1.145671 -0.963896 0.138086
v 1.092372 -0.963896 0.266762
v 1.007585 -0.963896 0.377259
v 0.897088 -0.963896 0.462046
v 0.768412 -0.963896 0.515345
v 0.630326 -0.963896 0.533525
v 0.492239 -0.963896 0.515346
v 0.363563 -0.963896 0.462046
v 0.253067 -0.963896 0.377259
v 0.168280 -0.963896 0.266763
v 0.114980 -0.963896 0.138087
v 0.096801 -0.963896 0.000000
v 0.114980 -0.963896 -0.138086
v 0.168279 -0.963896 -0.266762
v 0.253066 -0.963896 -0.377259
v 0.363563 -0.963896 -0.462046
v 0.492239 -0.963896 -0.515345
v 0.618145 -0.744645 -0.385355
v 0.717823 -0.748175 -0.372225
v 0.810708 -0.751463 -0.333728
v 0.890471 -0.754287 -0.272487
v 0.951675 -0.756454 -0.192678
v 0.990149 -0.757816 -0.099737
v 1.003272 -0.758281 -0.000000
v 0.990149 -0.757816 0.099737
v 0.951675 -0.756454 0.192678
v 0.890471 -0.754287 0.272487
v 0.810708 -0.751463 0.333727
v 0.717823 -0.748175 0.372225
v 0.618145 -0.744645 0.385355
v 0.518467 -0.741116 0.372225
v 0.425582 -0.737828 0.333728
v 0.345820 -0.735004 0.272487
v 0.284616 -0.732837 0.192678
v 0.246141 -0.731475 0.099737
v 0.233018 -0.731010 0.000000
v 0.246141 -0.731475 -0.099737
v 0.284616 -0.732837 -0.192678
v 0.345819 -0.735004 -0.272487
v 0.425582 -0.737828 -0.333727
v 0.518467 -0.741116 -0.372225
v 0.603934 -0.720284 -0.504148
v 0.734148 -0.727945 -0.486970
v 0.855488 -0.735084 -0.436605
v 0.959684 -0.741214 -0.356487
v 1.039637 -0.745917 -0.252074
v 1.089898 -0.748874 -0.130483
v 1.107041 -0.749883 -0.000000
v 1.089898 -0.748874 0.130483
v 1.039637 -0.745917 0.252074
v 0.959684 -0.741214 0.356486
v 0.855488 -0.735084 0.436605
v 0.734148 -0.727945 0.486969
v 0.603935 -0.720284 0.504148
v 0.473721 -0.712624 0.486970
v 0.352381 -0.705485 0.436605
v 0.248185 -0.699355 0.356487
v 0.168232 -0.694651 0.252074
v 0.117971 -0.691694 0.130483
v 0.100828 -0.690686 0.000000
v 0.117971 -0.691694 -0.130483
v 0.168231 -0.694651 -0.252074
v 0.248184 -0.699355 -0.356486
v 0.352381 -0.705485 -0.436605
v 0.473721 -0.712624 -0.486969
v 0.627583 -0.490842 -0.327710
v 0.712440 -0.494816 -0.316544
v 0.791514 -0.498519 -0.283805
v 0.859416 -0.501699 -0.231726
v 0.911519 -0.504139 -0.163855
v 0.944272 -0.505673 -0.084818
v 0.955444 -0.506196 -0.000000
v 0.944272 -0.505673 0.084818
v 0.911519 -0.504139 0.163855
v 0.859416 -0.501699 0.231726
v 0.791514 -0.498519 0.283805
v 0.712440 -0.494816 0.316544
v 0.627584 -0.490842 0.327710
v 0.542727 -0.486868 0.316544
v 0.463653 -0.483165 0.283805
v 0.395751 -0.479985 0.231726
v 0.343648 -0.477545 0.163855
v 0.310895 -0.476011 0.084818
v 0.299723 -0.475488 0.000000
v 0.310895 -0.476011 -0.084817
v 0.343648 -0.477545 -0.163855
v 0.395751 -0.479985 -0.231726
v 0.463653 -0.483165 -0.283805
v 0.542727 -0.486868 -0.316544
v 0.613373 -0.456330 -0.428987
v 0.724304 -0.463325 -0.414369
v 0.827676 -0.469843 -0.371513
v 0.916444 -0.475440 -0.303339
v 0.984557 -0.479735 -0.214493
v 1.027375 -0.482435 -0.111030
v 1.041980 -0.483356 -0.000000
v 1.027375 -0.482435 0.111030
v 0.984557 -0.479735 0.214493
v 0.916444 -0.475440 0.303339
v 0.827676 -0.469843 0.371513
v 0.724304 -0.463325 0.414369
v 0.613373 -0.456330 0.428987
v 0.502441 -0.449336 0.414369
v 0.399069 -0.442818 0.371513
v 0.310302 -0.437220 0.303340
v 0.242188 -0.432926 0.214493
v 0.199370 -0.430226 0.111030
v 0.184766 -0.429305 0.000000
v 0.199370 -0.430226 -0.111030
v 0.242188 -0.432926 -0.214493
v 0.310302 -0.437220 -0.303339
v 0.399069 -0.442818 -0.371513
v 0.502441 -0.449335 -0.414369
v 0.657031 -0.216715 -0.225545
v 0.715680 -0.218892 -0.217859
v 0.770333 -0.220920 -0.195327
v 0.817264 -0.222662 -0.159484
v 0.853275 -0.223999 -0.112772
v 0.875913 -0.224839 -0.058375
v 0.883634 -0.225125 -0.000000
v 0.875913 -0.224839 0.058375
v 0.853275 -0.223999 0.112772
v 0.817264 -0.222662 0.159484
v 0.770333 -0.220920 0.195327
v 0.715680 -0.218892 0.217859
v 0.657031 -0.216715 0.225545
v 0.598382 -0.214538 0.217859
v 0.543729 -0.212510 0.195327
v 0.496798 -0.210768 0.159484
v 0.460786 -0.209432 0.112772
v 0.438149 -0.208591 0.058375
v 0.430427 -0.208305 0.000000
v 0.438148 -0.208591 -0.058375
v 0.460786 -0.209432 -0.112772
v 0.496798 -0.210768 -0.159484
v 0.543729 -0.212510 -0.195327
v 0.598381 -0.214538 -0.217859
v 0.657031 -0.202504 -0.290107
v 0.732403 -0.206317 -0.280221
v 0.802640 -0.209869 -0.251240
v 0.862953 -0.212920 -0.205136
v 0.909233 -0.215260 -0.145053
v 0.938325 -0.216732 -0.075085
v 0.948248 -0.217234 -0.000000
v 0.938325 -0.216732 0.075085
v 0.909233 -0.215260 0.145053
v 0.862953 -0.212920 0.205136
v 0.802640 -0.209869 0.251240
v 0.732404 -0.206317 0.280221
v 0.657031 -0.202504 0.290106
v 0.581658 -0.198692 0.280221
v 0.511422 -0.195140 0.251240
v 0.451109 -0.192089 0.205136
v 0.404829 -0.189748 0.145053
v 0.375736 -0.188277 0.075085
v 0.365813 -0.187775 0.000000
v 0.375736 -0.188277 -0.075085
v 0.404829 -0.189748 -0.145053
v 0.451109 -0.192089 -0.205136
v 0.511422 -0.195140 -0.251239
v 0.581658 -0.198692 -0.280221
v 0.679545 0.003838 0.000000
vn 0.0000 -1.0000 -0.0000
vn -0.7959 0.5057 -0.3327
vn 0.0680 -0.9937 0.0891
vn -0.1010 0.5497 0.8292
vn 0.7844 0.6118 -0.1021
vn -0.6783 0.5129 -0.5262
vn -0.3164 0.5357 0.7829
vn 0.7844 0.6118 0.1021
vn -0.5140 0.5231 -0.6798
vn -0.5140 0.5231 0.6798
vn 0.7348 0.6081 0.3005
vn -0.3164 0.5357 -0.7829
vn 0.1160 0.5642 -0.8175
vn -0.6783 0.5129 0.5262
vn 0.6375 0.6009 0.4822
vn -0.1010 0.5497 -0.8292
vn 0.3196 0.5782 -0.7507
vn -0.7959 0.5057 0.3327
vn 0.4968 0.5907 0.6358
vn 0.4968 0.5907 -0.6358
vn -0.8573 0.5020 0.1138
vn 0.3196 0.5782 0.7507
vn 0.6375 0.6009 -0.4822
vn -0.8573 0.5020 -0.1138
vn 0.1160 0.5642 0.8175
vn 0.7348 0.6081 -0.3005
vn -0.0705 0.6136 0.7865
vn -0.0742 -0.9765 -0.2023
vn 0.0187 -0.9868 -0.1608
vn -0.2712 -0.9580 0.0929
vn 0.0489 -0.9908 0.1263
vn 0.0489 -0.9908 -0.1263
vn -0.2905 -0.9564 0.0321
vn 0.0187 -0.9868 0.1608
vn 0.0680 -0.9937 -0.0891
vn -0.2905 -0.9564 -0.0321
vn -0.0230 -0.9820 0.1877
vn 0.0782 -0.9956 -0.0524
vn -0.2712 -0.9580 -0.0929
vn -0.0742 -0.9765 0.2023
vn 0.0823 -0.9965 -0.0172
vn -0.2350 -0.9612 -0.1442
vn -0.1305 -0.9709 0.2007
vn 0.0823 -0.9965 0.0172
vn -0.1862 -0.9657 -0.1811
vn -0.1862 -0.9657 0.1811
vn 0.0782 -0.9956 0.0524
vn -0.1305 -0.9709 -0.2007
vn -0.0231 -0.9820 -0.1877
vn -0.2350 -0.9612 0.1442
vn -0.0945 -0.9441 -0.3158
vn 0.8441 0.5253 -0.1073
vn -0.5817 0.6615 -0.4733
vn -0.2674 0.6322 0.7272
vn 0.8441 0.5253 0.1073
vn -0.4414 0.6484 -0.6203
vn -0.4414 0.6484 0.6203
vn 0.7872 0.5309 0.3138
vn -0.2674 0.6322 -0.7272
vn 0.1366 0.5939 -0.7928
vn -0.5817 0.6615 0.4733
vn 0.6779 0.5416 0.4971
vn -0.0705 0.6136 -0.7865
vn 0.3399 0.5744 -0.7447
vn -0.6801 0.6705 0.2964
vn 0.5248 0.5566 0.6440
vn 0.5248 0.5566 -0.6440
vn -0.7307 0.6752 0.1009
vn 0.3399 0.5744 0.7447
vn 0.6779 0.5416 -0.4971
vn -0.7307 0.6752 -0.1009
vn 0.1366 0.5939 0.7928
vn 0.7872 0.5309 -0.3138
vn -0.6801 0.6705 -0.2964
vn -0.0637 0.6541 0.7537
vn 0.0675 -0.9541 -0.2919
vn -0.3497 -0.9287 0.1233
vn 0.1380 -0.9584 0.2497
vn 0.1380 -0.9584 -0.2497
vn -0.3717 -0.9274 0.0421
vn 0.0675 -0.9541 0.2919
vn 0.1951 -0.9620 -0.1910
vn -0.3717 -0.9274 -0.0421
vn -0.0118 -0.9492 0.3145
vn 0.2353 -0.9645 -0.1198
vn -0.3497 -0.9287 -0.1233
vn -0.0945 -0.9441 0.3158
vn 0.2560 -0.9658 -0.0408
vn -0.3073 -0.9312 -0.1957
vn -0.1750 -0.9392 0.2953
vn 0.2560 -0.9658 0.0408
vn -0.2477 -0.9348 -0.2544
vn -0.2477 -0.9348 0.2544
vn 0.2353 -0.9645 0.1198
vn -0.1750 -0.9392 -0.2953
vn -0.0118 -0.9492 -0.3145
vn -0.3073 -0.9312 0.1957
vn 0.1951 -0.9620 0.1910
vn 0.0316 -0.9826 -0.1832
vn 0.8474 0.5199 -0.1080
vn -0.5343 0.7215 -0.4404
vn -0.2484 0.6807 0.6892
vn 0.8474 0.5199 0.1080
vn -0.4080 0.7035 -0.5819
vn -0.4080 0.7035 0.5819
vn 0.7881 0.5288 0.3149
vn -0.2484 0.6807 -0.6892
vn 0.1349 0.6253 -0.7686
vn -0.5343 0.7215 0.4404
vn 0.6754 0.5457 0.4961
vn -0.0637 0.6541 -0.7537
vn 0.3343 0.5961 -0.7300
vn -0.6216 0.7338 0.2742
vn 0.5195 0.5688 0.6376
vn 0.5195 0.5688 -0.6376
vn -0.6661 0.7401 0.0931
vn 0.3343 0.5961 0.7300
vn 0.6754 0.5457 -0.4961
vn -0.6661 0.7401 -0.0931
vn 0.1349 0.6253 0.7686
vn 0.7881 0.5288 -0.3149
vn -0.6216 0.7338 -0.2742
vn 0.6334 0.7698 -0.0786
vn -0.2814 -0.9544 0.0993
vn 0.0695 -0.9865 0.1486
vn 0.0695 -0.9865 -0.1486
vn -0.3018 -0.9527 0.0343
vn 0.0316 -0.9826 0.1832
vn 0.0967 -0.9894 -0.1085
vn -0.3018 -0.9527 -0.0343
vn -0.0164 -0.9779 0.2085
vn 0.1138 -0.9913 -0.0658
vn -0.2814 -0.9544 -0.0993
vn -0.0724 -0.9726 0.2208
vn 0.1221 -0.9923 -0.0220
vn -0.2431 -0.9576 -0.1543
vn -0.1326 -0.9672 0.2167
vn 0.1221 -0.9923 0.0220
vn -0.1915 -0.9620 -0.1944
vn -0.1915 -0.9620 0.1944
vn 0.1138 -0.9913 0.0658
vn -0.1326 -0.9672 -0.2167
vn -0.0164 -0.9779 -0.2085
vn -0.2431 -0.9576 0.1543
vn 0.0967 -0.9894 0.1085
vn -0.0724 -0.9726 -0.2208
vn -0.4099 0.8429 -0.3486
vn -0.1788 0.8260 0.5345
vn 0.6334 0.7698 0.0786
vn -0.3066 0.8353 -0.4564
vn -0.3066 0.8353 0.4564
vn 0.5918 0.7726 0.2298
vn -0.1788 0.8260 -0.5345
vn 0.1170 0.8050 -0.5816
vn -0.4099 0.8429 0.3486
vn 0.5121 0.7779 0.3641
vn -0.0345 0.8157 -0.5775
vn 0.2655 0.7947 -0.5459
vn -0.4824 0.8483 0.2184
vn 0.4005 0.7855 0.4719
vn 0.4005 0.7855 -0.4719
vn -0.5198 0.8511 0.0744
vn 0.2655 0.7947 0.5459
vn 0.5121 0.7779 -0.3641
vn -0.5198 0.8511 -0.0744
vn 0.1170 0.8050 0.5816
vn 0.5918 0.7726 -0.2298
vn -0.4824 0.8483 -0.2184
vn -0.0345 0.8157 0.5775
vn 0.1260 0.2620 -0.9568
vn 0.3693 0.2620 -0.8916
vn 0.5875 0.2620 -0.7656
vn 0.7656 0.2620 -0.5875
vn 0.8916 0.2620 -0.3693
vn 0.9568 0.2620 -0.1260
vn 0.9568 0.2620 0.1260
vn 0.8916 0.2620 0.3693
vn 0.7656 0.2620 0.5875
vn 0.5875 0.2620 0.7656
vn 0.3693 0.2620 0.8916
vn 0.1260 0.2620 0.9568
vn -0.1260 0.2620 0.9568
vn -0.3693 0.2620 0.8916
vn -0.5875 0.2620 0.7656
vn -0.7656 0.2620 0.5875
vn -0.8916 0.2620 0.3693
vn -0.9568 0.2620 0.1260
vn -0.9568 0.2620 -0.1260
vn -0.8916 0.2620 -0.3693
vn -0.7656 0.2620 -0.5875
vn -0.5875 0.2620 -0.7656
vn -0.3693 0.2620 -0.8916
vn -0.1260 0.2620 -0.9568
usemtl Crown2Material
s off
f 14//1 12//1 54//1 55//1
f 69//2 68//2 92//2 93//2
f 24//1 22//1 59//1 60//1
f 34//1 32//1 64//1 65//1
f 44//1 42//1 69//1 70//1
f 10//1 8//1 52//1 53//1
f 20//1 18//1 57//1 58//1
f 30//1 28//1 62//1 63//1
f 40//1 38//1 67//1 68//1
f 2//1 48//1 72//1 49//1
f 6//1 4//1 50//1 51//1
f 16//1 14//1 55//1 56//1
f 26//1 24//1 60//1 61//1
f 36//1 34//1 65//1 66//1
f 46//1 44//1 70//1 71//1
f 12//1 10//1 53//1 54//1
f 22//1 20//1 58//1 59//1
f 32//1 30//1 63//1 64//1
f 42//1 40//1 68//1 69//1
f 8//1 6//1 51//1 52//1
f 18//1 16//1 56//1 57//1
f 4//1 2//1 49//1 50//1
f 28//1 26//1 61//1 62//1
f 38//1 36//1 66//1 67//1
f 48//1 46//1 71//1 72//1
f 82//3 81//3 105//3 106//3
f 62//4 61//4 85//4 86//4
f 55//5 54//5 78//5 79//5
f 70//6 69//6 93//6 94//6
f 63//7 62//7 86//7 87//7
f 56//8 55//8 79//8 80//8
f 71//9 70//9 94//9 95//9
f 64//10 63//10 87//10 88//10
f 57//11 56//11 80//11 81//11
f 72//12 71//12 95//12 96//12
f 50//13 49//13 73//13 74//13
f 65//14 64//14 88//14 89//14
f 58//15 57//15 81//15 82//15
f 49//16 72//16 96//16 73//16
f 51//17 50//17 74//17 75//17
f 66//18 65//18 89//18 90//18
f 59//19 58//19 82//19 83//19
f 52//20 51//20 75//20 76//20
f 67//21 66//21 90//21 91//21
f 60//22 59//22 83//22 84//22
f 53//23 52//23 76//23 77//23
f 68//24 67//24 91//24 92//24
f 61//25 60//25 84//25 85//25
f 54//26 53//26 77//26 78//26
f 110//27 109//27 133//27 134//27
f 73//28 96//28 120//28 97//28
f 75//29 74//29 98//29 99//29
f 90//30 89//30 113//30 114//30
f 83//31 82//31 106//31 107//31
f 76//32 75//32 99//32 100//32
f 91//33 90//33 114//33 115//33
f 84//34 83//34 107//34 108//34
f 77//35 76//35 100//35 101//35
f 92//36 91//36 115//36 116//36
f 85//37 84//37 108//37 109//37
f 78//38 77//38 101//38 102//38
f 93//39 92//39 116//39 117//39
f 86//40 85//40 109//40 110//40
f 79//41 78//41 102//41 103//41
f 94//42 93//42 117//42 118//42
f 87//43 86//43 110//43 111//43
f 80//44 79//44 103//44 104//44
f 95//45 94//45 118//45 119//45
f 88//46 87//46 111//46 112//46
f 81//47 80//47 104//47 105//47
f 96//48 95//48 119//48 120//48
f 74//49 73//49 97//49 98//49
f 89//50 88//50 112//50 113//50
f 121//51 144//51 168//51 145//51
f 103//52 102//52 126//52 127//52
f 118//53 117//53 141//53 142//53
f 111//54 110//54 134//54 135//54
f 104//55 103//55 127//55 128//55
f 119//56 118//56 142//56 143//56
f 112//57 111//57 135//57 136//57
f 105//58 104//58 128//58 129//58
f 120//59 119//59 143//59 144//59
f 98//60 97//60 121//60 122//60
f 113//61 112//61 136//61 137//61
f 106//62 105//62 129//62 130//62
f 97//63 120//63 144//63 121//63
f 99//64 98//64 122//64 123//64
f 114//65 113//65 137//65 138//65
f 107//66 106//66 130//66 131//66
f 100//67 99//67 123//67 124//67
f 115//68 114//68 138//68 139//68
f 108//69 107//69 131//69 132//69
f 101//70 100//70 124//70 125//70
f 116//71 115//71 139//71 140//71
f 109//72 108//72 132//72 133//72
f 102//73 101//73 125//73 126//73
f 117//74 116//74 140//74 141//74
f 158//75 157//75 181//75 182//75
f 123//76 122//76 146//76 147//76
f 138//77 137//77 161//77 162//77
f 131//78 130//78 154//78 155//78
f 124//79 123//79 147//79 148//79
f 139//80 138//80 162//80 163//80
f 132//81 131//81 155//81 156//81
f 125//82 124//82 148//82 149//82
f 140//83 139//83 163//83 164//83
f 133//84 132//84 156//84 157//84
f 126//85 125//85 149//85 150//85
f 141//86 140//86 164//86 165//86
f 134//87 133//87 157//87 158//87
f 127//88 126//88 150//88 151//88
f 142//89 141//89 165//89 166//89
f 135//90 134//90 158//90 159//90
f 128//91 127//91 151//91 152//91
f 143//92 142//92 166//92 167//92
f 136//93 135//93 159//93 160//93
f 129//94 128//94 152//94 153//94
f 144//95 143//95 167//95 168//95
f 122//96 121//96 145//96 146//96
f 137//97 136//97 160//97 161//97
f 130//98 129//98 153//98 154//98
f 171//99 170//99 194//99 195//99
f 151//100 150//100 174//100 175//100
f 166//101 165//101 189//101 190//101
f 159//102 158//102 182//102 183//102
f 152//103 151//103 175//103 176//103
f 167//104 166//104 190//104 191//104
f 160//105 159//105 183//105 184//105
f 153//106 152//106 176//106 177//106
f 168//107 167//107 191//107 192//107
f 146//108 145//108 169//108 170//108
f 161//109 160//109 184//109 185//109
f 154//110 153//110 177//110 178//110
f 145//111 168//111 192//111 169//111
f 147//112 146//112 170//112 171//112
f 162//113 161//113 185//113 186//113
f 155//114 154//114 178//114 179//114
f 148//115 147//115 171//115 172//115
f 163//116 162//116 186//116 187//116
f 156//117 155//117 179//117 180//117
f 149//118 148//118 172//118 173//118
f 164//119 163//119 187//119 188//119
f 157//120 156//120 180//120 181//120
f 150//121 149//121 173//121 174//121
f 165//122 164//122 188//122 189//122
f 199//123 198//123 217//123
f 186//124 185//124 209//124 210//124
f 179//125 178//125 202//125 203//125
f 172//126 171//126 195//126 196//126
f 187//127 186//127 210//127 211//127
f 180//128 179//128 203//128 204//128
f 173//129 172//129 196//129 197//129
f 188//130 187//130 211//130 212//130
f 181//131 180//131 204//131 205//131
f 174//132 173//132 197//132 198//132
f 189//133 188//133 212//133 213//133
f 182//134 181//134 205//134 206//134
f 175//135 174//135 198//135 199//135
f 190//136 189//136 213//136 214//136
f 183//137 182//137 206//137 207//137
f 176//138 175//138 199//138 200//138
f 191//139 190//139 214//139 215//139
f 184//140 183//140 207//140 208//140
f 177//141 176//141 200//141 201//141
f 192//142 191//142 215//142 216//142
f 170//143 169//143 193//143 194//143
f 185//144 184//144 208//144 209//144
f 178//145 177//145 201//145 202//145
f 169//146 192//146 216//146 193//146
f 214//147 213//147 217//147
f 207//148 206//148 217//148
f 200//149 199//149 217//149
f 215//150 214//150 217//150
f 208//151 207//151 217//151
f 201//152 200//152 217//152
f 216//153 215//153 217//153
f 194//154 193//154 217//154
f 209//155 208//155 217//155
f 202//156 201//156 217//156
f 193//157 216//157 217//157
f 195//158 194//158 217//158
f 210//159 209//159 217//159
f 203//160 202//160 217//160
f 196//161 195//161 217//161
f 211//162 210//162 217//162
f 204//163 203//163 217//163
f 197//164 196//164 217//164
f 212//165 211//165 217//165
f 205//166 204//166 217//166
f 198//167 197//167 217//167
f 213//168 212//168 217//168
f 206//169 205//169 217//169
usemtl Trunk2Material
f 1//170 2//170 4//170 3//170
f 3//171 4//171 6//171 5//171
f 5//172 6//172 8//172 7//172
f 7//173 8//173 10//173 9//173
f 9//174 10//174 12//174 11//174
f 11//175 12//175 14//175 13//175
f 13//176 14//176 16//176 15//176
f 15//177 16//177 18//177 17//177
f 17//178 18//178 20//178 19//178
f 19//179 20//179 22//179 21//179
f 21//180 22//180 24//180 23//180
f 23//181 24//181 26//181 25//181
f 25//182 26//182 28//182 27//182
f 27//183 28//183 30//183 29//183
f 29//184 30//184 32//184 31//184
f 31//185 32//185 34//185 33//185
f 33//186 34//186 36//186 35//186
f 35//187 36//187 38//187 37//187
f 37//188 38//188 40//188 39//188
f 39//189 40//189 42//189 41//189
f 41//190 42//190 44//190 43//190
f 43//191 44//191 46//191 45//191
f 45//192 46//192 48//192 47//192
f 47//193 48//193 2//193 1//193
