# Blender v2.78 (sub 0) OBJ File: 'bitballoon.blend'
# www.blender.org
mtllib tree1.mtl
o tree1_Cylinder
v 0.021147 0.001949 -0.205809
v 0.011278 0.301433 -0.108612
v 0.074414 0.001949 -0.198796
v 0.039389 0.301433 -0.104911
v 0.124051 0.001949 -0.178236
v 0.065584 0.301433 -0.094061
v 0.166676 0.001949 -0.145529
v 0.088079 0.301433 -0.076800
v 0.199383 0.001949 -0.102904
v 0.105339 0.301433 -0.054306
v 0.219943 0.001949 -0.053267
v 0.116189 0.301433 -0.028111
v 0.226956 0.001949 -0.000000
v 0.119890 0.301433 0.000000
v 0.219943 0.001949 0.053267
v 0.116189 0.301433 0.028111
v 0.199383 0.001949 0.102904
v 0.105339 0.301433 0.054306
v 0.166676 0.001949 0.145529
v 0.088079 0.301433 0.076800
v 0.124051 0.001949 0.178236
v 0.065584 0.301433 0.094061
v 0.074414 0.001949 0.198796
v 0.039389 0.301433 0.104911
v 0.021147 0.001949 0.205809
v 0.011278 0.301433 0.108612
v -0.032120 0.001949 0.198796
v -0.016832 0.301433 0.104911
v -0.081758 0.001949 0.178236
v -0.043028 0.301433 0.094061
v -0.124382 0.001949 0.145529
v -0.065522 0.301433 0.076800
v -0.157089 0.001949 0.102905
v -0.082782 0.301433 0.054306
v -0.177649 0.001949 0.053267
v -0.093633 0.301433 0.028111
v -0.184662 0.001949 0.000000
v -0.097334 0.301433 0.000000
v -0.177649 0.001949 -0.053267
v -0.093633 0.301433 -0.028111
v -0.157089 0.001949 -0.102904
v -0.082782 0.301433 -0.054306
v -0.124382 0.001949 -0.145529
v -0.065522 0.301433 -0.076800
v -0.081758 0.001949 -0.178236
v -0.043028 0.301433 -0.094061
v -0.032121 0.001949 -0.198796
v -0.016833 0.301433 -0.104911
v -0.000415 0.301433 -0.635179
v 0.163981 0.301433 -0.613536
v 0.317175 0.301433 -0.550081
v 0.448725 0.301433 -0.449140
v 0.549666 0.301433 -0.317590
v 0.613121 0.301433 -0.164397
v 0.634764 0.301433 -0.000000
v 0.613121 0.301433 0.164396
v 0.549666 0.301433 0.317590
v 0.448725 0.301433 0.449139
v 0.317175 0.301433 0.550081
v 0.163982 0.301433 0.613536
v -0.000415 0.301433 0.635179
v -0.164811 0.301433 0.613536
v -0.318004 0.301433 0.550082
v -0.449554 0.301433 0.449140
v -0.550496 0.301433 0.317590
v -0.613951 0.301433 0.164397
v -0.635594 0.301433 0.000000
v -0.613951 0.301433 -0.164396
v -0.550497 0.301433 -0.317589
v -0.449555 0.301433 -0.449139
v -0.318005 0.301433 -0.550081
v -0.164812 0.301433 -0.613536
v 0.020048 0.465141 -0.378443
v 0.117997 0.465141 -0.365548
v 0.209270 0.465141 -0.327741
v 0.287648 0.465141 -0.267600
v 0.347790 0.465141 -0.189222
v 0.385596 0.465141 -0.097948
v 0.398492 0.465141 -0.000000
v 0.385596 0.465141 0.097948
v 0.347790 0.465141 0.189222
v 0.287648 0.465141 0.267600
v 0.209270 0.465141 0.327741
v 0.117997 0.465141 0.365548
v 0.020049 0.465141 0.378443
v -0.077900 0.465141 0.365548
v -0.169173 0.465141 0.327742
v -0.247551 0.465141 0.267600
v -0.307693 0.465141 0.189222
v -0.345500 0.465141 0.097948
v -0.358395 0.465141 0.000000
v -0.345500 0.465141 -0.097948
v -0.307693 0.465141 -0.189221
v -0.247552 0.465141 -0.267600
v -0.169173 0.465141 -0.327741
v -0.077900 0.465141 -0.365548
v 0.002508 0.479757 -0.487666
v 0.128726 0.479757 -0.471049
v 0.246341 0.479757 -0.422331
v 0.347340 0.479757 -0.344832
v 0.424840 0.479757 -0.243833
v 0.473558 0.479757 -0.126217
v 0.490175 0.479757 -0.000000
v 0.473558 0.479757 0.126217
v 0.424840 0.479757 0.243833
v 0.347340 0.479757 0.344832
v 0.246341 0.479757 0.422331
v 0.128726 0.479757 0.471049
v 0.002508 0.479757 0.487666
v -0.123709 0.479757 0.471050
v -0.241325 0.479757 0.422331
v -0.342324 0.479757 0.344832
v -0.419823 0.479757 0.243833
v -0.468541 0.479757 0.126217
v -0.485158 0.479757 0.000000
v -0.468541 0.479757 -0.126217
v -0.419823 0.479757 -0.243833
v -0.342324 0.479757 -0.344832
v -0.241325 0.479757 -0.422331
v -0.123709 0.479757 -0.471049
v 0.020048 0.635669 -0.258461
v 0.086706 0.630039 -0.249654
v 0.148821 0.624793 -0.223834
v 0.202160 0.620289 -0.182760
v 0.243088 0.616832 -0.129231
v 0.268817 0.614659 -0.066895
v 0.277593 0.613918 -0.000000
v 0.268817 0.614659 0.066895
v 0.243088 0.616832 0.129231
v 0.202160 0.620289 0.182760
v 0.148821 0.624793 0.223834
v 0.086706 0.630039 0.249654
v 0.020048 0.635669 0.258461
v -0.046609 0.641298 0.249654
v -0.108724 0.646544 0.223834
v -0.162063 0.651049 0.182760
v -0.202992 0.654506 0.129231
v -0.228720 0.656678 0.066895
v -0.237496 0.657420 0.000000
v -0.228720 0.656678 -0.066895
v -0.202992 0.654506 -0.129230
v -0.162063 0.651049 -0.182760
v -0.108724 0.646544 -0.223834
v -0.046609 0.641298 -0.249654
v 0.020048 0.659056 -0.427161
v 0.130214 0.653426 -0.412606
v 0.232871 0.648180 -0.369932
v 0.321025 0.643676 -0.302049
v 0.388669 0.640219 -0.213581
v 0.431191 0.638046 -0.110557
v 0.445694 0.637305 -0.000000
v 0.431191 0.638046 0.110557
v 0.388669 0.640219 0.213581
v 0.321026 0.643676 0.302048
v 0.232871 0.648180 0.369932
v 0.130214 0.653426 0.412606
v 0.020049 0.659056 0.427161
v -0.090117 0.664685 0.412606
v -0.192774 0.669931 0.369933
v -0.280929 0.674436 0.302049
v -0.348572 0.677892 0.213581
v -0.391094 0.680065 0.110558
v -0.405598 0.680806 0.000000
v -0.391094 0.680065 -0.110557
v -0.348572 0.677892 -0.213580
v -0.280929 0.674436 -0.302048
v -0.192775 0.669931 -0.369932
v -0.090117 0.664685 -0.412606
v 0.020048 0.840303 -0.182098
v 0.067102 0.839413 -0.175893
v 0.110949 0.838583 -0.157702
v 0.148601 0.837871 -0.128763
v 0.177492 0.837324 -0.091049
v 0.195654 0.836981 -0.047130
v 0.201849 0.836864 0.000000
v 0.195654 0.836981 0.047130
v 0.177492 0.837324 0.091049
v 0.148601 0.837871 0.128763
v 0.110949 0.838583 0.157702
v 0.067102 0.839413 0.175893
v 0.020048 0.840303 0.182098
v -0.027005 0.841193 0.175893
v -0.070852 0.842022 0.157702
v -0.108504 0.842735 0.128763
v -0.137395 0.843281 0.091049
v -0.155557 0.843625 0.047131
v -0.161752 0.843742 0.000000
v -0.155557 0.843625 -0.047130
v -0.137396 0.843281 -0.091049
v -0.108504 0.842735 -0.128763
v -0.070852 0.842022 -0.157701
v -0.027005 0.841193 -0.175893
v -0.003338 0.849073 -0.358915
v 0.089404 0.848183 -0.346685
v 0.175826 0.847353 -0.310829
v 0.250038 0.846641 -0.253791
v 0.306983 0.846094 -0.179457
v 0.342780 0.845751 -0.092894
v 0.354990 0.845634 -0.000000
v 0.342780 0.845751 0.092894
v 0.306983 0.846094 0.179457
v 0.250038 0.846641 0.253791
v 0.175826 0.847353 0.310829
v 0.089404 0.848183 0.346685
v -0.003338 0.849073 0.358915
v -0.096080 0.849963 0.346685
v -0.182503 0.850793 0.310830
v -0.256715 0.851505 0.253791
v -0.313660 0.852051 0.179458
v -0.349457 0.852395 0.092894
v -0.361667 0.852512 0.000000
v -0.349457 0.852395 -0.092894
v -0.313660 0.852051 -0.179457
v -0.256715 0.851505 -0.253791
v -0.182503 0.850792 -0.310829
v -0.096081 0.849963 -0.346685
v -0.013815 1.026566 -0.168347
v 0.029685 1.025676 -0.162611
v 0.070221 1.024846 -0.145793
v 0.105029 1.024134 -0.119039
v 0.131739 1.023587 -0.084173
v 0.148530 1.023244 -0.043571
v 0.154257 1.023127 0.000000
v 0.148530 1.023244 0.043571
v 0.131739 1.023587 0.084173
v 0.105029 1.024134 0.119039
v 0.070221 1.024846 0.145793
v 0.029685 1.025676 0.162611
v -0.013815 1.026566 0.168347
v -0.057316 1.027456 0.162611
v -0.097851 1.028286 0.145793
v -0.132660 1.028998 0.119039
v -0.159370 1.029544 0.084174
v -0.176160 1.029888 0.043571
v -0.181887 1.030005 0.000000
v -0.176160 1.029888 -0.043571
v -0.159370 1.029544 -0.084173
v -0.132660 1.028998 -0.119039
v -0.097851 1.028286 -0.145793
v -0.057316 1.027456 -0.162611
v -0.004071 1.033874 -0.332038
v 0.081676 1.030796 -0.320725
v 0.161579 1.027928 -0.287554
v 0.230194 1.025465 -0.234787
v 0.282844 1.023575 -0.166019
v 0.315941 1.022386 -0.085938
v 0.327229 1.021981 -0.000000
v 0.315941 1.022386 0.085938
v 0.282844 1.023575 0.166019
v 0.230194 1.025465 0.234787
v 0.161579 1.027928 0.287554
v 0.081676 1.030796 0.320724
v -0.004071 1.033874 0.332038
v -0.089818 1.036952 0.320725
v -0.169721 1.039821 0.287554
v -0.238336 1.042284 0.234787
v -0.290985 1.044174 0.166019
v -0.324083 1.045362 0.085938
v -0.335371 1.045767 0.000000
v -0.324083 1.045362 -0.085938
v -0.290986 1.044174 -0.166019
v -0.238336 1.042284 -0.234787
v -0.169721 1.039821 -0.287554
v -0.089818 1.036952 -0.320724
v -0.034387 1.280036 0.000000
vn 0.1241 0.3100 -0.9426
vn 0.3629 0.3171 -0.8762
vn 0.5760 0.3235 -0.7507
vn 0.7493 0.3286 -0.5750
vn 0.8714 0.3322 -0.3609
vn 0.9345 0.3341 -0.1230
vn 0.9345 0.3341 0.1230
vn 0.8714 0.3322 0.3609
vn 0.7493 0.3286 0.5750
vn 0.5760 0.3235 0.7507
vn 0.3629 0.3171 0.8762
vn 0.1241 0.3100 0.9426
vn -0.1244 0.3026 0.9450
vn -0.3656 0.2954 0.8827
vn -0.5828 0.2889 0.7595
vn -0.7608 0.2835 0.5838
vn -0.8870 0.2797 0.3674
vn -0.9524 0.2777 0.1254
vn -0.9524 0.2777 -0.1254
vn -0.8870 0.2797 -0.3674
vn -0.7608 0.2835 -0.5838
vn -0.5828 0.2889 -0.7595
vn -0.3656 0.2954 -0.8827
vn -0.1244 0.3026 -0.9450
vn 0.0000 -1.0000 0.0000
vn 0.4492 0.8242 -0.3447
vn -0.0742 -0.9925 0.0967
vn -0.5074 0.8591 -0.0668
vn 0.0711 0.8385 0.5403
vn 0.5271 0.8213 -0.2183
vn -0.4746 0.8580 -0.1966
vn -0.0701 0.8436 0.5323
vn 0.5679 0.8197 -0.0748
vn -0.4105 0.8558 -0.3150
vn -0.2026 0.8484 0.4891
vn 0.5679 0.8197 0.0748
vn -0.3182 0.8525 -0.4147
vn -0.3182 0.8525 0.4147
vn 0.5271 0.8213 0.2183
vn -0.2026 0.8484 -0.4891
vn 0.0711 0.8385 -0.5403
vn -0.4105 0.8558 0.3150
vn 0.4492 0.8242 0.3447
vn -0.0701 0.8436 -0.5323
vn 0.2116 0.8332 -0.5108
vn -0.4746 0.8580 0.1966
vn 0.3410 0.8284 0.4444
vn 0.3410 0.8284 -0.4444
vn -0.5074 0.8591 0.0668
vn 0.2116 0.8332 0.5108
vn 0.4415 0.8384 -0.3196
vn 0.1448 -0.9876 0.0600
vn -0.0483 -0.9920 -0.1165
vn 0.0178 -0.9906 -0.1354
vn -0.0942 -0.9929 0.0723
vn 0.1214 -0.9882 0.0932
vn -0.0171 -0.9914 -0.1299
vn 0.0545 -0.9898 -0.1316
vn -0.1077 -0.9932 0.0446
vn 0.0902 -0.9890 0.1175
vn 0.0902 -0.9890 -0.1175
vn -0.1145 -0.9933 0.0151
vn 0.0545 -0.9898 0.1316
vn 0.1214 -0.9882 -0.0932
vn -0.1145 -0.9933 -0.0151
vn 0.0178 -0.9906 0.1354
vn 0.1448 -0.9876 -0.0600
vn -0.1077 -0.9932 -0.0446
vn -0.0171 -0.9914 0.1299
vn 0.1574 -0.9873 -0.0207
vn -0.0942 -0.9929 -0.0723
vn -0.0483 -0.9920 0.1165
vn 0.1574 -0.9873 0.0207
vn -0.0742 -0.9925 -0.0967
vn 0.1191 -0.9900 0.0752
vn -0.5800 0.8107 -0.0794
vn 0.0974 0.8256 0.5557
vn 0.5030 0.8413 -0.1979
vn -0.5366 0.8114 -0.2318
vn -0.0509 0.8214 0.5680
vn 0.5339 0.8429 -0.0670
vn -0.4535 0.8128 -0.3657
vn -0.1999 0.8178 0.5396
vn 0.5339 0.8429 0.0670
vn -0.3380 0.8149 -0.4708
vn -0.3380 0.8149 0.4708
vn 0.5030 0.8413 0.1979
vn -0.1999 0.8178 -0.5396
vn 0.0974 0.8256 -0.5557
vn -0.4535 0.8128 0.3657
vn 0.4415 0.8384 0.3196
vn -0.0509 0.8214 -0.5680
vn 0.2341 0.8301 -0.5060
vn -0.5366 0.8114 0.2318
vn 0.3508 0.8345 0.4249
vn 0.3508 0.8345 -0.4249
vn -0.5800 0.8107 0.0794
vn 0.2341 0.8301 0.5060
vn -0.5542 0.8288 -0.0773
vn -0.1068 -0.9887 -0.1055
vn -0.0438 -0.9884 -0.1451
vn -0.1335 -0.9896 0.0539
vn 0.0868 -0.9896 0.1146
vn -0.0800 -0.9884 -0.1289
vn -0.0006 -0.9887 -0.1499
vn -0.1376 -0.9900 0.0308
vn 0.0449 -0.9891 0.1400
vn 0.0449 -0.9891 -0.1400
vn -0.1388 -0.9903 0.0099
vn -0.0006 -0.9887 0.1499
vn 0.0868 -0.9896 -0.1146
vn -0.1388 -0.9903 -0.0099
vn -0.0438 -0.9884 0.1451
vn 0.1191 -0.9900 -0.0752
vn -0.1376 -0.9900 -0.0308
vn -0.0800 -0.9884 0.1289
vn 0.1367 -0.9903 -0.0262
vn -0.1335 -0.9896 -0.0539
vn -0.1068 -0.9887 0.1055
vn 0.1367 -0.9903 0.0262
vn -0.1241 -0.9891 -0.0794
vn -0.1241 -0.9891 0.0794
vn 0.0506 -0.9984 0.0262
vn 0.1114 0.7973 0.5932
vn 0.5901 0.7738 -0.2304
vn -0.5146 0.8269 -0.2267
vn -0.0448 0.8048 0.5918
vn 0.6311 0.7717 -0.0786
vn -0.4378 0.8234 -0.3611
vn -0.1949 0.8120 0.5502
vn 0.6311 0.7717 0.0786
vn -0.3289 0.8183 -0.4714
vn -0.3289 0.8183 0.4714
vn 0.5901 0.7738 0.2304
vn -0.1949 0.8120 -0.5502
vn 0.1114 0.7973 -0.5932
vn -0.4378 0.8234 0.3611
vn 0.5109 0.7777 0.3662
vn -0.0448 0.8048 -0.5918
vn 0.2629 0.7900 -0.5539
vn -0.5146 0.8269 0.2267
vn 0.3992 0.7833 0.4766
vn 0.3992 0.7833 -0.4766
vn -0.5542 0.8288 0.0773
vn 0.2629 0.7900 0.5539
vn 0.5109 0.7777 -0.3662
vn 0.0985 0.7315 0.6747
vn -0.0286 -0.9989 -0.0382
vn -0.0061 -0.9987 -0.0504
vn -0.0402 -0.9990 0.0210
vn 0.0391 -0.9984 0.0397
vn -0.0187 -0.9988 -0.0454
vn 0.0087 -0.9986 -0.0517
vn -0.0428 -0.9990 0.0124
vn 0.0244 -0.9985 0.0483
vn 0.0244 -0.9985 -0.0483
vn -0.0440 -0.9990 0.0041
vn 0.0087 -0.9986 0.0517
vn 0.0391 -0.9984 -0.0397
vn -0.0440 -0.9990 -0.0041
vn -0.0061 -0.9987 0.0504
vn 0.0506 -0.9984 -0.0262
vn -0.0428 -0.9990 -0.0124
vn -0.0187 -0.9988 0.0454
vn 0.0569 -0.9983 -0.0092
vn -0.0402 -0.9990 -0.0210
vn -0.0286 -0.9989 0.0382
vn 0.0569 -0.9983 0.0092
vn -0.0356 -0.9989 -0.0297
vn -0.0356 -0.9989 0.0297
vn -0.0521 -0.9973 -0.0518
vn 0.6176 0.7452 -0.2514
vn -0.6493 0.7101 -0.2723
vn -0.0805 0.7266 0.6824
vn 0.6601 0.7463 -0.0855
vn -0.5532 0.7130 -0.4309
vn -0.2573 0.7216 0.6428
vn 0.6601 0.7463 0.0855
vn -0.4189 0.7169 -0.5573
vn -0.4189 0.7169 0.5573
vn 0.6176 0.7452 0.2514
vn -0.2573 0.7216 -0.6428
vn 0.0985 0.7315 -0.6747
vn -0.5532 0.7130 0.4309
vn 0.5348 0.7431 0.4022
vn -0.0805 0.7266 -0.6824
vn 0.2676 0.7361 -0.6218
vn -0.6493 0.7101 0.2723
vn 0.4159 0.7400 0.5286
vn 0.4159 0.7400 -0.5286
vn -0.6994 0.7086 0.0931
vn 0.2676 0.7361 0.6218
vn 0.5348 0.7431 -0.4022
vn -0.6994 0.7086 -0.0931
vn 0.1061 0.8034 0.5859
vn -0.0249 -0.9987 -0.0434
vn -0.0834 -0.9957 0.0405
vn -0.0078 -0.9998 0.0175
vn -0.0372 -0.9981 -0.0495
vn -0.0161 -0.9993 -0.0350
vn -0.0953 -0.9951 0.0268
vn -0.0106 -0.9996 0.0261
vn -0.0106 -0.9996 -0.0261
vn -0.1018 -0.9948 0.0094
vn -0.0161 -0.9993 0.0350
vn -0.0078 -0.9998 -0.0176
vn -0.1018 -0.9948 -0.0094
vn -0.0249 -0.9987 0.0434
vn -0.0066 -0.9999 -0.0100
vn -0.0953 -0.9951 -0.0268
vn -0.0372 -0.9981 0.0495
vn -0.0063 -1.0000 -0.0032
vn -0.0834 -0.9957 -0.0405
vn -0.0521 -0.9973 0.0518
vn -0.0063 -1.0000 0.0032
vn -0.0683 -0.9965 -0.0490
vn -0.0683 -0.9965 0.0490
vn -0.0066 -0.9999 0.0100
vn 0.5444 0.8113 -0.2130
vn -0.5652 0.7876 -0.2453
vn -0.0501 0.8001 0.5978
vn 0.5794 0.8119 -0.0723
vn -0.4762 0.7900 -0.3863
vn -0.2072 0.7966 0.5679
vn 0.5794 0.8119 0.0723
vn -0.3532 0.7931 -0.4963
vn -0.3532 0.7931 0.4963
vn 0.5444 0.8113 0.2130
vn -0.2072 0.7966 -0.5679
vn 0.1061 0.8034 -0.5859
vn -0.4762 0.7900 0.3863
vn 0.4759 0.8102 0.3421
vn -0.0501 0.8001 -0.5978
vn 0.2513 0.8062 -0.5356
vn -0.5652 0.7876 0.2453
vn 0.3767 0.8085 0.4521
vn 0.3767 0.8085 -0.4521
vn -0.6120 0.7863 0.0841
vn 0.2513 0.8062 0.5356
vn 0.4759 0.8102 -0.3421
vn -0.6120 0.7863 -0.0841
usemtl TrunkMaterial
s off
f 1//1 2//1 4//1 3//1
f 3//2 4//2 6//2 5//2
f 5//3 6//3 8//3 7//3
f 7//4 8//4 10//4 9//4
f 9//5 10//5 12//5 11//5
f 11//6 12//6 14//6 13//6
f 13//7 14//7 16//7 15//7
f 15//8 16//8 18//8 17//8
f 17//9 18//9 20//9 19//9
f 19//10 20//10 22//10 21//10
f 21//11 22//11 24//11 23//11
f 23//12 24//12 26//12 25//12
f 25//13 26//13 28//13 27//13
f 27//14 28//14 30//14 29//14
f 29//15 30//15 32//15 31//15
f 31//16 32//16 34//16 33//16
f 33//17 34//17 36//17 35//17
f 35//18 36//18 38//18 37//18
f 37//19 38//19 40//19 39//19
f 39//20 40//20 42//20 41//20
f 41//21 42//21 44//21 43//21
f 43//22 44//22 46//22 45//22
f 45//23 46//23 48//23 47//23
f 47//24 48//24 2//24 1//24
usemtl CrownMaterial
f 18//25 16//25 56//25 57//25
f 53//26 52//26 76//26 77//26
f 28//25 26//25 61//25 62//25
f 4//25 2//25 49//25 50//25
f 38//25 36//25 66//25 67//25
f 48//25 46//25 71//25 72//25
f 14//25 12//25 54//25 55//25
f 24//25 22//25 59//25 60//25
f 34//25 32//25 64//25 65//25
f 44//25 42//25 69//25 70//25
f 10//25 8//25 52//25 53//25
f 20//25 18//25 57//25 58//25
f 30//25 28//25 62//25 63//25
f 40//25 38//25 67//25 68//25
f 2//25 48//25 72//25 49//25
f 6//25 4//25 50//25 51//25
f 16//25 14//25 55//25 56//25
f 26//25 24//25 60//25 61//25
f 36//25 34//25 65//25 66//25
f 46//25 44//25 70//25 71//25
f 12//25 10//25 53//25 54//25
f 22//25 20//25 58//25 59//25
f 32//25 30//25 63//25 64//25
f 42//25 40//25 68//25 69//25
f 8//25 6//25 51//25 52//25
f 88//27 87//27 111//27 112//27
f 68//28 67//28 91//28 92//28
f 61//29 60//29 84//29 85//29
f 54//30 53//30 77//30 78//30
f 69//31 68//31 92//31 93//31
f 62//32 61//32 85//32 86//32
f 55//33 54//33 78//33 79//33
f 70//34 69//34 93//34 94//34
f 63//35 62//35 86//35 87//35
f 56//36 55//36 79//36 80//36
f 71//37 70//37 94//37 95//37
f 64//38 63//38 87//38 88//38
f 57//39 56//39 80//39 81//39
f 72//40 71//40 95//40 96//40
f 50//41 49//41 73//41 74//41
f 65//42 64//42 88//42 89//42
f 58//43 57//43 81//43 82//43
f 49//44 72//44 96//44 73//44
f 51//45 50//45 74//45 75//45
f 66//46 65//46 89//46 90//46
f 59//47 58//47 82//47 83//47
f 52//48 51//48 75//48 76//48
f 67//49 66//49 90//49 91//49
f 60//50 59//50 83//50 84//50
f 101//51 100//51 124//51 125//51
f 81//52 80//52 104//52 105//52
f 96//53 95//53 119//53 120//53
f 74//54 73//54 97//54 98//54
f 89//55 88//55 112//55 113//55
f 82//56 81//56 105//56 106//56
f 73//57 96//57 120//57 97//57
f 75//58 74//58 98//58 99//58
f 90//59 89//59 113//59 114//59
f 83//60 82//60 106//60 107//60
f 76//61 75//61 99//61 100//61
f 91//62 90//62 114//62 115//62
f 84//63 83//63 107//63 108//63
f 77//64 76//64 100//64 101//64
f 92//65 91//65 115//65 116//65
f 85//66 84//66 108//66 109//66
f 78//67 77//67 101//67 102//67
f 93//68 92//68 116//68 117//68
f 86//69 85//69 109//69 110//69
f 79//70 78//70 102//70 103//70
f 94//71 93//71 117//71 118//71
f 87//72 86//72 110//72 111//72
f 80//73 79//73 103//73 104//73
f 95//74 94//74 118//74 119//74
f 129//75 128//75 152//75 153//75
f 116//76 115//76 139//76 140//76
f 109//77 108//77 132//77 133//77
f 102//78 101//78 125//78 126//78
f 117//79 116//79 140//79 141//79
f 110//80 109//80 133//80 134//80
f 103//81 102//81 126//81 127//81
f 118//82 117//82 141//82 142//82
f 111//83 110//83 134//83 135//83
f 104//84 103//84 127//84 128//84
f 119//85 118//85 142//85 143//85
f 112//86 111//86 135//86 136//86
f 105//87 104//87 128//87 129//87
f 120//88 119//88 143//88 144//88
f 98//89 97//89 121//89 122//89
f 113//90 112//90 136//90 137//90
f 106//91 105//91 129//91 130//91
f 97//92 120//92 144//92 121//92
f 99//93 98//93 122//93 123//93
f 114//94 113//94 137//94 138//94
f 107//95 106//95 130//95 131//95
f 100//96 99//96 123//96 124//96
f 115//97 114//97 138//97 139//97
f 108//98 107//98 131//98 132//98
f 164//99 163//99 187//99 188//99
f 144//100 143//100 167//100 168//100
f 122//101 121//101 145//101 146//101
f 137//102 136//102 160//102 161//102
f 130//103 129//103 153//103 154//103
f 121//104 144//104 168//104 145//104
f 123//105 122//105 146//105 147//105
f 138//106 137//106 161//106 162//106
f 131//107 130//107 154//107 155//107
f 124//108 123//108 147//108 148//108
f 139//109 138//109 162//109 163//109
f 132//110 131//110 155//110 156//110
f 125//111 124//111 148//111 149//111
f 140//112 139//112 163//112 164//112
f 133//113 132//113 156//113 157//113
f 126//114 125//114 149//114 150//114
f 141//115 140//115 164//115 165//115
f 134//116 133//116 157//116 158//116
f 127//117 126//117 150//117 151//117
f 142//118 141//118 165//118 166//118
f 135//119 134//119 158//119 159//119
f 128//120 127//120 151//120 152//120
f 143//121 142//121 166//121 167//121
f 136//122 135//122 159//122 160//122
f 177//123 176//123 200//123 201//123
f 157//124 156//124 180//124 181//124
f 150//125 149//125 173//125 174//125
f 165//126 164//126 188//126 189//126
f 158//127 157//127 181//127 182//127
f 151//128 150//128 174//128 175//128
f 166//129 165//129 189//129 190//129
f 159//130 158//130 182//130 183//130
f 152//131 151//131 175//131 176//131
f 167//132 166//132 190//132 191//132
f 160//133 159//133 183//133 184//133
f 153//134 152//134 176//134 177//134
f 168//135 167//135 191//135 192//135
f 146//136 145//136 169//136 170//136
f 161//137 160//137 184//137 185//137
f 154//138 153//138 177//138 178//138
f 145//139 168//139 192//139 169//139
f 147//140 146//140 170//140 171//140
f 162//141 161//141 185//141 186//141
f 155//142 154//142 178//142 179//142
f 148//143 147//143 171//143 172//143
f 163//144 162//144 186//144 187//144
f 156//145 155//145 179//145 180//145
f 149//146 148//146 172//146 173//146
f 205//147 204//147 228//147 229//147
f 192//148 191//148 215//148 216//148
f 170//149 169//149 193//149 194//149
f 185//150 184//150 208//150 209//150
f 178//151 177//151 201//151 202//151
f 169//152 192//152 216//152 193//152
f 171//153 170//153 194//153 195//153
f 186//154 185//154 209//154 210//154
f 179//155 178//155 202//155 203//155
f 172//156 171//156 195//156 196//156
f 187//157 186//157 210//157 211//157
f 180//158 179//158 203//158 204//158
f 173//159 172//159 196//159 197//159
f 188//160 187//160 211//160 212//160
f 181//161 180//161 204//161 205//161
f 174//162 173//162 197//162 198//162
f 189//163 188//163 212//163 213//163
f 182//164 181//164 205//164 206//164
f 175//165 174//165 198//165 199//165
f 190//166 189//166 213//166 214//166
f 183//167 182//167 206//167 207//167
f 176//168 175//168 199//168 200//168
f 191//169 190//169 214//169 215//169
f 184//170 183//170 207//170 208//170
f 240//171 239//171 263//171 264//171
f 198//172 197//172 221//172 222//172
f 213//173 212//173 236//173 237//173
f 206//174 205//174 229//174 230//174
f 199//175 198//175 222//175 223//175
f 214//176 213//176 237//176 238//176
f 207//177 206//177 230//177 231//177
f 200//178 199//178 223//178 224//178
f 215//179 214//179 238//179 239//179
f 208//180 207//180 231//180 232//180
f 201//181 200//181 224//181 225//181
f 216//182 215//182 239//182 240//182
f 194//183 193//183 217//183 218//183
f 209//184 208//184 232//184 233//184
f 202//185 201//185 225//185 226//185
f 193//186 216//186 240//186 217//186
f 195//187 194//187 218//187 219//187
f 210//188 209//188 233//188 234//188
f 203//189 202//189 226//189 227//189
f 196//190 195//190 219//190 220//190
f 211//191 210//191 234//191 235//191
f 204//192 203//192 227//192 228//192
f 197//193 196//193 220//193 221//193
f 212//194 211//194 235//194 236//194
f 253//195 252//195 265//195
f 218//196 217//196 241//196 242//196
f 233//197 232//197 256//197 257//197
f 226//198 225//198 249//198 250//198
f 217//199 240//199 264//199 241//199
f 219//200 218//200 242//200 243//200
f 234//201 233//201 257//201 258//201
f 227//202 226//202 250//202 251//202
f 220//203 219//203 243//203 244//203
f 235//204 234//204 258//204 259//204
f 228//205 227//205 251//205 252//205
f 221//206 220//206 244//206 245//206
f 236//207 235//207 259//207 260//207
f 229//208 228//208 252//208 253//208
f 222//209 221//209 245//209 246//209
f 237//210 236//210 260//210 261//210
f 230//211 229//211 253//211 254//211
f 223//212 222//212 246//212 247//212
f 238//213 237//213 261//213 262//213
f 231//214 230//214 254//214 255//214
f 224//215 223//215 247//215 248//215
f 239//216 238//216 262//216 263//216
f 232//217 231//217 255//217 256//217
f 225//218 224//218 248//218 249//218
f 246//219 245//219 265//219
f 261//220 260//220 265//220
f 254//221 253//221 265//221
f 247//222 246//222 265//222
f 262//223 261//223 265//223
f 255//224 254//224 265//224
f 248//225 247//225 265//225
f 263//226 262//226 265//226
f 256//227 255//227 265//227
f 249//228 248//228 265//228
f 264//229 263//229 265//229
f 242//230 241//230 265//230
f 257//231 256//231 265//231
f 250//232 249//232 265//232
f 241//233 264//233 265//233
f 243//234 242//234 265//234
f 258//235 257//235 265//235
f 251//236 250//236 265//236
f 244//237 243//237 265//237
f 259//238 258//238 265//238
f 252//239 251//239 265//239
f 245//240 244//240 265//240
f 260//241 259//241 265//241
